<?xml version="1.0" ?><!DOCTYPE svg  PUBLIC '-//W3C//DTD SVG 1.1//EN'  'http://www.w3.org/Graphics/SVG/1.1/DTD/svg11.dtd'><svg id="Layer_1" style="enable-background:new 0 0 75 75;" version="1.1" viewBox="0 0 75 75" xml:space="preserve" xmlns="http://www.w3.org/2000/svg" xmlns:xlink="http://www.w3.org/1999/xlink"><style type="text/css">
	.st0{fill:#EC008C;}
	.st1{fill:#FFFFFF;}
	.st2{fill:#00AAAD;}
	.st3{fill:#F9A01B;}
	.st4{fill:#B2D235;}
</style><g><path class="st3" d="M62.5,73.5h-50c-6.1,0-11-4.9-11-11v-50c0-6.1,4.9-11,11-11h50c6.1,0,11,4.9,11,11v50   C73.5,68.6,68.6,73.5,62.5,73.5z"/><g><path class="st1" d="M51,25.4H24c-2.2,0-4,1.8-4,4v16.3c0,2.2,1.8,4,4,4h27c2.2,0,4-1.8,4-4V29.4C55,27.1,53.2,25.4,51,25.4z     M48.2,42c1.5,1.7,3.1,3.5,4.5,5.3c-1.8-1.5-3.6-3-5.3-4.5c-1.5-1.3-3-2.7-4.5-4.1c-0.3,0.3-0.6,0.7-0.9,1    c-0.2,0.2-0.4,0.4-0.6,0.7c-0.2,0.2-0.3,0.3-0.5,0.5l-2.7,2.7l-0.7,0.7l-0.7-0.7l-2.7-2.7c-0.1-0.1-0.2-0.2-0.3-0.3L33,39.7    c-0.3-0.3-0.6-0.7-0.9-1c-1.5,1.4-3,2.8-4.5,4.1c-1.7,1.5-3.5,3.1-5.3,4.5c1.5-1.8,3-3.6,4.5-5.3c1.4-1.5,2.7-3,4.1-4.5    c-0.5-0.6-1.1-1.1-1.6-1.7c-2.4-2.6-4.8-5.3-7.1-8.2c2.8,2.2,5.5,4.6,8.2,7.1c0.6,0.5,1.1,1,1.7,1.5l0,0l0.2,0.2    c0.7,0.6,1.4,1.3,2,1.9l0.9,0.9c0.1,0.1,0.2,0.2,0.3,0.3l2,2l2-2c0.2-0.2,0.3-0.3,0.5-0.5c0.2-0.2,0.4-0.4,0.7-0.7    c0.5-0.4,0.9-0.9,1.4-1.3c0.1-0.1,0.1-0.1,0.2-0.2l0.7-0.6l0,0c0.6-0.5,1.1-1,1.7-1.5c2.6-2.4,5.3-4.8,8.2-7.1    c-2.2,2.8-4.6,5.5-7.1,8.2c-0.5,0.6-1.1,1.1-1.6,1.7C45.5,39,46.9,40.5,48.2,42z"/></g></g></svg>